<svg width="38" height="38" viewBox="0 0 38 38" fill="none" xmlns="http://www.w3.org/2000/svg">
<path d="M30.5868 21.375H24.4514C23.6381 21.3742 22.8577 21.6959 22.2813 22.2696C21.7049 22.8434 21.3795 23.6223 21.3766 24.4356V30.571C21.3762 30.9749 21.4554 31.3749 21.6098 31.7482C21.7642 32.1214 21.9906 32.4606 22.2763 32.7462C22.5619 33.0318 22.901 33.2583 23.2742 33.4126C23.6475 33.567 24.0475 33.6463 24.4514 33.6458H30.5868C31.3998 33.6425 32.1784 33.317 32.7518 32.7406C33.3252 32.1642 33.6467 31.384 33.6458 30.571V24.4356C33.6463 24.0338 33.5674 23.6358 33.4138 23.2645C33.2602 22.8931 33.0349 22.5558 32.7508 22.2716C32.4667 21.9875 32.1293 21.7622 31.758 21.6086C31.3866 21.455 30.9887 21.3762 30.5868 21.3766M13.5486 21.375H7.41317C6.60027 21.3796 5.82224 21.7058 5.24906 22.2822C4.67588 22.8586 4.35415 23.6385 4.35417 24.4514V30.5868C4.35375 30.9887 4.43259 31.3866 4.58617 31.758C4.73975 32.1293 4.96506 32.4667 5.2492 32.7508C5.53333 33.0349 5.87072 33.2603 6.24204 33.4138C6.61337 33.5674 7.01134 33.6463 7.41317 33.6458H13.5486C14.3616 33.6467 15.1418 33.3252 15.7182 32.7518C16.2945 32.1784 16.6201 31.3999 16.6234 30.5868V24.4514C16.6238 24.0475 16.5446 23.6475 16.3902 23.2742C16.2358 22.901 16.0094 22.5619 15.7237 22.2763C15.4381 21.9907 15.099 21.7642 14.7258 21.6098C14.3525 21.4554 13.9525 21.3762 13.5486 21.3766M13.5486 4.35417H7.41317C7.01134 4.35376 6.61337 4.4326 6.24204 4.58618C5.87072 4.73976 5.53333 4.96507 5.2492 5.2492C4.96506 5.53334 4.73975 5.87073 4.58617 6.24205C4.43259 6.61338 4.35375 7.01134 4.35417 7.41317V13.5486C4.35332 14.3616 4.67483 15.1418 5.24824 15.7182C5.82164 16.2945 6.60016 16.6201 7.41317 16.6234H13.5486C13.9525 16.6238 14.3525 16.5446 14.7258 16.3902C15.099 16.2358 15.4381 16.0094 15.7237 15.7238C16.0094 15.4381 16.2358 15.099 16.3902 14.7258C16.5446 14.3525 16.6238 13.9525 16.6234 13.5486V7.41317C16.6201 6.60017 16.2945 5.82165 15.7182 5.24824C15.1418 4.67484 14.3616 4.35333 13.5486 4.35417ZM30.5868 4.35417H24.4514C23.6384 4.35333 22.8582 4.67484 22.2818 5.24824C21.7055 5.82165 21.3799 6.60017 21.3766 7.41317V13.5486C21.377 14.364 21.7011 15.1458 22.2776 15.7224C22.8542 16.2989 23.636 16.623 24.4514 16.6234H30.5868C31.3998 16.6201 32.1784 16.2945 32.7518 15.7182C33.3252 15.1418 33.6467 14.3616 33.6458 13.5486V7.41317C33.6463 7.01134 33.5674 6.61338 33.4138 6.24205C33.2602 5.87073 33.0349 5.53334 32.7508 5.2492C32.4667 4.96507 32.1293 4.73976 31.758 4.58618C31.3866 4.4326 30.9887 4.35376 30.5868 4.35417Z" stroke="#DDAB2C" stroke-width="2" stroke-linecap="round" stroke-linejoin="round"/>
</svg>
