<svg width="159" height="184" viewBox="0 0 159 184" fill="none" xmlns="http://www.w3.org/2000/svg">
<path fill-rule="evenodd" clip-rule="evenodd" d="M144.449 44.6272L156.885 60.6591C175.159 84.224 184.292 95.9982 182.652 108.988C181.011 121.985 169.236 131.119 145.679 149.393C122.113 167.674 110.339 176.808 97.3416 175.167C84.3519 173.526 75.2104 161.751 56.9362 138.194L44.4997 122.162C34.0009 108.619 28.7467 101.855 27.4996 93.7714C26.2447 85.687 29.2044 77.6448 35.1226 61.5682L38.5302 52.2945C43.5029 38.7616 45.9931 31.9956 51.3644 27.8219C56.7356 23.6483 63.915 22.9271 78.2593 21.475L88.09 20.4723C105.14 18.7455 113.658 17.8772 121.177 21.0948C128.696 24.3202 133.949 31.0922 144.449 44.6272ZM96.1974 114.396C91.6228 108.508 92.6106 100.999 96.4967 95.4442C95.8623 94.2253 95.6747 92.8227 95.9667 91.4799C96.2587 90.1371 97.0117 88.939 98.095 88.0937C99.1784 87.2483 100.524 86.809 101.897 86.8521C103.27 86.8953 104.585 87.4181 105.614 88.3298C108.435 87.2637 111.431 86.8834 114.32 87.2799C115.866 87.4897 117.264 88.3049 118.209 89.546C119.153 90.7871 119.566 92.3525 119.356 93.8979C119.146 95.4433 118.331 96.842 117.09 97.7863C115.849 98.7307 114.283 99.1433 112.738 98.9335C110.928 98.7726 109.128 99.3318 107.729 100.49C104.338 103.12 104.743 106.237 105.484 107.192C106.232 108.148 109.143 109.314 112.533 106.684C119.402 101.356 130.189 100.663 136.081 108.259C140.655 114.155 139.667 121.663 135.781 127.218C136.41 128.436 136.594 129.837 136.3 131.176C136.006 132.516 135.254 133.711 134.172 134.554C133.09 135.397 131.748 135.836 130.377 135.794C129.006 135.752 127.693 135.232 126.665 134.325C122.933 135.799 118.803 135.926 114.987 134.683C113.51 134.18 112.294 133.111 111.605 131.711C110.917 130.311 110.812 128.695 111.315 127.218C111.818 125.741 112.887 124.524 114.287 123.836C115.687 123.147 117.303 123.043 118.78 123.546C120.121 124.007 122.402 123.837 124.549 122.172C127.94 119.534 127.535 116.425 126.794 115.47C126.045 114.514 123.134 113.349 119.744 115.979C112.876 121.307 102.089 121.999 96.1974 114.396ZM91.4028 81.9043C93.0296 80.6419 94.3918 79.0714 95.4117 77.2825C96.4315 75.4936 97.0891 73.5213 97.3467 71.4783C97.6044 69.4353 97.4571 67.3616 96.9133 65.3755C96.3695 63.3894 95.4399 61.5299 94.1774 59.9031C92.915 58.2763 91.3445 56.914 89.5556 55.8942C87.7667 54.8743 85.7944 54.2168 83.7514 53.9592C81.7084 53.7015 79.6347 53.8488 77.6486 54.3926C75.6625 54.9364 73.803 55.866 72.1762 57.1285C68.8907 59.6781 66.7526 63.4284 66.2322 67.5544C65.7119 71.6805 66.8519 75.8442 69.4016 79.1297C71.9512 82.4152 75.7015 84.5533 79.8275 85.0736C83.9536 85.594 88.1173 84.4539 91.4028 81.9043Z" fill="url(#paint0_linear_83_431)"/>
<defs>
<linearGradient id="paint0_linear_83_431" x1="133.671" y1="-29.0002" x2="68.1709" y2="185" gradientUnits="userSpaceOnUse">
<stop stop-color="#F6EACA"/>
<stop offset="1" stop-color="#E5BF5E"/>
</linearGradient>
</defs>
</svg>
