<svg width="36" height="36" viewBox="0 0 36 36" fill="none" xmlns="http://www.w3.org/2000/svg">
<path d="M16.875 24.75L15.2887 26.3363L18.1912 29.25H4.5V9H2.25V29.25C2.25 30.4909 3.25912 31.5 4.5 31.5H18.1912L15.2887 34.4137L16.875 36L22.5 30.375L16.875 24.75Z" fill="#DDAB2C"/>
<path d="M12.375 19.125C12.9963 19.125 13.5 18.6213 13.5 18C13.5 17.3787 12.9963 16.875 12.375 16.875C11.7537 16.875 11.25 17.3787 11.25 18C11.25 18.6213 11.7537 19.125 12.375 19.125Z" fill="#DDAB2C"/>
<path d="M27 22.5H9C7.75912 22.5 6.75 21.4909 6.75 20.25V15.75C6.75 14.5091 7.75912 13.5 9 13.5H27C28.2409 13.5 29.25 14.5091 29.25 15.75V20.25C29.25 21.4909 28.2409 22.5 27 22.5ZM9 15.75V20.25H27V15.75H9Z" fill="#DDAB2C"/>
<path d="M31.5 4.5H17.8088L20.7112 1.58625L19.125 0L13.5 5.625L19.125 11.25L20.7112 9.66375L17.8088 6.75H31.5V27H33.75V6.75C33.75 5.51025 32.7409 4.5 31.5 4.5Z" fill="#DDAB2C"/>
</svg>
