<svg width="117" height="107" viewBox="0 0 117 107" fill="none" xmlns="http://www.w3.org/2000/svg">
<path d="M62.8438 6.81917C68.6354 2.64917 75.3538 0.564165 82.9408 0.564165C87.1108 0.564165 91.6863 1.66458 96.6671 3.98125C101.648 6.24 105.586 8.90417 108.482 11.9737C114.448 19.3871 116.938 28.0167 116.069 37.8625C115.143 47.7083 111.899 55.4113 106.281 60.8554L62.3225 104.814C61.2221 105.915 59.8321 106.436 58.2104 106.436C56.5888 106.436 55.2567 105.915 54.1563 104.814C53.6208 104.287 53.2003 103.655 52.9212 102.957C52.6421 102.259 52.5105 101.511 52.5346 100.76C52.5346 99.1383 53.0559 97.7483 54.1563 96.6479L80.74 70.0642C82.1879 68.79 82.1879 67.4579 80.74 66.01C79.2921 64.5621 77.96 64.5621 76.6858 66.01L50.1021 92.5938C49.5661 93.1337 48.9239 93.5566 48.2161 93.8357C47.5083 94.1148 46.7503 94.2441 45.99 94.2154C44.3684 94.2154 43.0363 93.6942 41.9359 92.5938C41.4004 92.0665 40.9799 91.4341 40.7008 90.7364C40.4217 90.0386 40.29 89.2907 40.3142 88.5396C40.3142 86.9179 40.8354 85.5279 41.9359 84.4275L68.5196 57.8438C70.0833 56.3958 70.0833 54.9479 68.5196 53.5C67.1875 52.0521 65.9133 52.0521 64.4654 53.5L37.8817 80.3733C37.3396 80.9049 36.6963 81.3224 35.99 81.6009C35.2837 81.8795 34.5286 82.0135 33.7696 81.995C32.1479 81.995 30.7579 81.4737 29.5417 80.3733C28.3834 79.2729 27.8042 77.9408 27.8042 76.3192C27.8042 74.6975 28.4413 73.2496 29.7154 71.9754L56.3571 45.3337C57.805 43.8858 57.805 42.5537 56.3571 41.2796C54.9092 40.0054 53.5192 40.0054 52.245 41.2796L25.3717 67.9792C24.0975 69.1375 22.7654 69.7746 21.3175 69.7746C19.6959 69.7746 18.3059 69.1954 17.2634 67.9792C16.1629 66.8208 15.5838 65.4308 15.5838 63.8092C15.5838 62.1875 16.1629 60.8554 17.2634 59.755C34.9859 41.9167 45.9321 31.1442 50.1021 27.1479L70.7204 47.5346C72.9792 49.6775 75.5854 50.7779 78.7708 50.7779C82.825 50.7779 86.0104 49.1562 88.385 45.9129C90.0067 43.5383 90.5858 40.9321 90.1225 38.0362C89.6592 35.1404 88.4429 32.7079 86.4738 30.6808L62.8438 6.81917ZM74.7746 43.4804L50.1021 18.75L9.0971 59.755C4.23211 54.8321 1.4521 47.3029 0.815022 37.0517C0.177939 26.8583 2.95794 17.9971 9.0971 10.5837C15.9892 3.74958 24.2134 0.274582 33.7696 0.274582C43.3838 0.274582 51.55 3.74958 58.2104 10.5837L82.9408 35.3142C84.0413 36.4146 84.5625 37.7467 84.5625 39.3683C84.5625 40.99 84.0413 42.38 82.9408 43.4804C81.8404 44.5229 80.5083 45.1021 78.7708 45.1021C77.2071 45.1021 75.875 44.5229 74.7746 43.4804Z" fill="url(#paint0_linear_0_1260)"/>
<defs>
<linearGradient id="paint0_linear_0_1260" x1="-82" y1="106" x2="103" y2="-9.2674e-06" gradientUnits="userSpaceOnUse">
<stop stop-color="#F6EACA"/>
<stop offset="1" stop-color="#865EE5"/>
</linearGradient>
</defs>
</svg>
