<svg width="99" height="116" viewBox="0 0 99 116" fill="none" xmlns="http://www.w3.org/2000/svg">
<path d="M48.3674 0.172455C44.5842 0.248627 41.8675 0.984955 40.0647 2.30527L15.3596 15.5338L1.62331 34.2187C-1.27122 38.6875 0.785419 47.3203 9.82448 41.7851L19.7268 28.7344C32.2952 17.8951 57.9397 22.8691 45.7776 44.6289C39.8108 57.2226 42.6038 63.3672 50.2971 65.957L53.801 54.1758C59.8694 40.5156 71.1936 38.0527 70.7366 27.0332L98.0681 29.2542V0.610167L48.3674 0.172455ZM34.6311 26.4238C30.2132 26.3477 25.8714 28.1758 22.7229 30.8164L12.7952 43.8672C15.512 46.0254 18.2542 44.8574 20.971 42.2422C24.1702 43.8672 26.6585 41.3535 28.6897 36.3262C29.5276 32.8984 30.7717 30.4863 34.6311 26.4238ZM14.4202 50.7988C14.3186 50.7988 14.1917 50.7988 14.0901 50.8242C13.2522 51.0019 12.262 51.8906 11.6018 53.9219C10.9163 55.9531 10.7639 58.8477 11.3733 61.9453C11.9827 65.0176 13.2522 67.6328 14.6741 69.2578C16.0452 70.8574 17.3147 71.3145 18.1526 71.1367C19.0159 70.9844 19.9807 70.0703 20.6409 68.0645C21.3264 66.0332 21.5042 63.1133 20.8948 60.041C20.26 56.9434 18.9905 54.3281 17.594 52.7285C16.3753 51.3066 15.2581 50.7988 14.4202 50.7988ZM35.3928 77.916C33.387 77.9414 30.8733 78.5762 28.4104 79.7695C25.5921 81.166 23.3831 83.0957 22.1897 84.873C20.9964 86.625 20.8948 87.9453 21.2757 88.7324C21.6565 89.4941 22.7737 90.2305 24.9065 90.332C27.0393 90.459 29.9085 89.875 32.7268 88.4785C35.5452 87.082 37.7542 85.1777 38.9475 83.4004C40.1409 81.6484 40.2424 80.3027 39.8616 79.541C39.4807 78.7539 38.3635 78.043 36.2307 77.9414C35.9514 77.916 35.6975 77.916 35.3928 77.916ZM10.6116 102.189C9.41823 102.215 8.32643 102.393 7.36159 102.672C5.20338 103.307 3.95925 104.449 3.553 105.795C3.12135 107.166 3.553 108.791 5.00026 110.543C6.47292 112.27 8.93581 113.92 11.9827 114.834C15.0042 115.748 17.9495 115.723 20.1331 115.062C22.3167 114.428 23.5608 113.285 23.9671 111.939C24.3733 110.568 23.9671 108.943 22.4944 107.191C21.0471 105.465 18.5842 103.814 15.5374 102.9C13.8108 102.393 12.135 102.164 10.6116 102.189Z" fill="url(#paint0_linear_0_1264)"/>
<defs>
<linearGradient id="paint0_linear_0_1264" x1="-50.0251" y1="97" x2="98.4749" y2="-14" gradientUnits="userSpaceOnUse">
<stop stop-color="#F6EACA"/>
<stop offset="1" stop-color="#E5BF5E"/>
</linearGradient>
</defs>
</svg>
