<svg width="145" height="145" viewBox="0 0 145 145" fill="none" xmlns="http://www.w3.org/2000/svg">
<g clip-path="url(#clip0_1_1295)">
<path d="M42.7205 86.0081L58.5314 54.8983L65.2854 69.7881L90.1017 58.5314L94.6044 68.4579L69.7881 79.7146L76.5422 94.6044L42.7205 86.0081Z" fill="url(#paint0_linear_1_1295)"/>
<path d="M104.122 10.2805L4.85692 55.3075L40.8785 134.72L140.144 89.6926L104.122 10.2805ZM92.8139 51.3168L101.819 71.1698L77.003 82.4266L86.0084 102.28L46.3023 120.29L19.2861 60.7313L58.9922 42.7205L67.9976 62.5736L92.8139 51.3168Z" fill="url(#paint1_linear_1_1295)"/>
</g>
<defs>
<linearGradient id="paint0_linear_1_1295" x1="316.5" y1="-26.5" x2="-474" y2="208" gradientUnits="userSpaceOnUse">
<stop stop-color="#865EE5"/>
<stop offset="1" stop-color="#F6EACA"/>
</linearGradient>
<linearGradient id="paint1_linear_1_1295" x1="201.5" y1="9.99976" x2="-415.5" y2="205.5" gradientUnits="userSpaceOnUse">
<stop stop-color="#865EE5" stop-opacity="0.75"/>
<stop offset="1" stop-color="#F6EACA"/>
</linearGradient>
<clipPath id="clip0_1_1295">
<rect width="109" height="109" fill="white" transform="matrix(-0.910689 0.413092 0.413092 0.910689 99.6191 0.354004)"/>
</clipPath>
</defs>
</svg>
