<svg width="36" height="36" viewBox="0 0 36 36" fill="none" xmlns="http://www.w3.org/2000/svg">
<path d="M7.5 4.5C7.5 4.10218 7.65804 3.72064 7.93934 3.43934C8.22064 3.15804 8.60218 3 9 3H30C30.3978 3 30.7794 3.15804 31.0607 3.43934C31.342 3.72064 31.5 4.10218 31.5 4.5V31.5C31.5 31.8978 31.342 32.2794 31.0607 32.5607C30.7794 32.842 30.3978 33 30 33H9C8.60218 33 8.22064 32.842 7.93934 32.5607C7.65804 32.2794 7.5 31.8978 7.5 31.5V4.5Z" stroke="#DDAB2C" stroke-width="2.5" stroke-linejoin="round"/>
<path d="M25.5 4.5V31.5M4.5 10.5H10.5M4.5 18H10.5M4.5 25.5H10.5M20.25 3H29.25M20.25 33H29.25" stroke="#DDAB2C" stroke-width="2.5" stroke-linecap="round" stroke-linejoin="round"/>
</svg>
