<svg width="47" height="47" viewBox="0 0 47 47" fill="none" xmlns="http://www.w3.org/2000/svg">
<path d="M7.34375 7.34375V39.6562H39.6562V7.34375H7.34375ZM10.2812 10.2812H36.7188V36.7188H10.2812V10.2812ZM29.4719 13.3069C28.9153 13.207 28.3087 13.4009 27.9356 14.0413L27.5993 14.6155C24.2197 12.7164 19.881 13.8621 17.929 17.1682C15.9829 20.4803 17.1535 24.7514 20.5258 26.6578C21.8271 27.3995 20.517 26.6519 21.8183 27.3922C23.5676 28.3792 25.0525 25.7957 23.3311 24.8219C23.3238 24.8219 22.0283 24.0934 22.0283 24.0934C20.0969 22.9962 19.4154 20.5419 20.5361 18.6487C21.6567 16.7555 24.1624 16.099 26.0938 17.1888C27.3951 17.9305 26.085 17.1829 27.3863 17.9232C28.0987 18.2727 28.7846 18.1229 29.2399 17.6764C29.4279 17.4913 29.3809 17.5383 30.5706 15.5173C31.1962 14.454 30.4002 13.4728 29.4719 13.3069ZM24.5105 19.389C23.077 19.2362 22.1311 21.3233 23.6381 22.1752C24.8968 22.8743 23.6924 22.2046 24.9379 22.9037C26.8693 24.0008 27.5405 26.4551 26.4287 28.3483C25.308 30.2416 22.8038 30.8981 20.8724 29.8083C19.5711 29.0666 20.8798 29.8142 19.5799 29.0739C19.2331 28.8772 18.8231 28.824 18.4375 28.9255C18.0519 29.0271 17.7213 29.2754 17.5163 29.6173L16.4177 31.4812C15.5364 32.9764 17.7719 35.1163 19.3743 32.3874C22.7539 34.2865 27.0926 33.1409 29.0445 29.8347C30.998 26.5271 29.8303 22.256 26.4434 20.3392C25.1421 19.5975 26.4478 20.3451 25.1465 19.6049C24.9519 19.4892 24.7353 19.4156 24.5105 19.389Z" fill="#DDAB2C"/>
</svg>
