<svg width="43" height="43" viewBox="0 0 43 43" fill="none" xmlns="http://www.w3.org/2000/svg">
<path d="M34.0417 5.375H8.95833C6.96958 5.375 5.375 6.96958 5.375 8.95833V34.0417C5.375 34.992 5.75253 35.9035 6.42453 36.5755C7.09654 37.2475 8.00797 37.625 8.95833 37.625H34.0417C36.0304 37.625 37.625 36.0304 37.625 34.0417V8.95833C37.625 8.00797 37.2475 7.09654 36.5755 6.42453C35.9035 5.75253 34.992 5.375 34.0417 5.375ZM34.0417 34.0417H8.95833V8.95833H34.0417V34.0417ZM30.4583 27.2692C30.4583 29.025 29.025 30.4583 27.2692 30.4583C25.5133 30.4583 24.0979 29.025 24.0979 27.2692C24.0979 25.5133 25.5133 24.0979 27.2692 24.0979C29.025 24.0979 30.4583 25.5133 30.4583 27.2692ZM15.2292 30.5121L12.5417 27.8246L27.8246 12.5417L30.5121 15.2292L15.2292 30.5121ZM12.6313 15.8204C12.6313 14.0467 14.0467 12.6313 15.8204 12.6313C17.5763 12.6313 18.9917 14.0467 18.9917 15.8204C18.9917 17.5763 17.5763 18.9917 15.8204 18.9917C14.0467 18.9917 12.6313 17.5763 12.6313 15.8204Z" fill="#DDAB2C"/>
</svg>
