<svg width="116" height="115" viewBox="0 0 116 115" fill="none" xmlns="http://www.w3.org/2000/svg">
<path d="M90.5483 14.484L79.0484 8.4465C68.9514 3.15075 63.9029 0.5 58.4749 0.5C53.0469 0.5 47.9984 3.145 37.9014 8.4465L36.0556 9.41825L87.3629 38.7375L110.455 27.18C106.74 22.971 100.749 19.8258 90.5483 14.4725M114.526 34.793L91.5374 46.293V63.75C91.5374 64.8938 91.083 65.9907 90.2743 66.7994C89.4655 67.6082 88.3686 68.0625 87.2249 68.0625C86.0811 68.0625 84.9842 67.6082 84.1755 66.7994C83.3667 65.9907 82.9124 64.8938 82.9124 63.75V50.6055L62.7874 60.668V114.948C66.9159 113.919 71.6136 111.458 79.0484 107.554L90.5483 101.516C102.917 95.0243 109.104 91.7813 112.542 85.945C115.975 80.1145 115.975 72.8523 115.975 58.345V57.6723C115.975 46.7875 115.975 39.9795 114.526 34.793ZM54.1624 114.948V60.668L2.42385 34.793C0.974854 39.9795 0.974854 46.7875 0.974854 57.6608V58.3335C0.974854 72.8523 0.974853 80.1145 4.4076 85.945C7.8461 91.7813 14.0331 95.03 26.4014 101.522L37.9014 107.554C45.3361 111.458 50.0339 113.919 54.1624 114.948ZM6.49485 27.1858L58.4749 53.1758L78.0881 43.372L26.9936 14.1735L26.4014 14.484C16.2066 19.8315 10.2094 22.9768 6.49485 27.1915" fill="url(#paint0_linear_0_1270)"/>
<defs>
<linearGradient id="paint0_linear_0_1270" x1="-121.025" y1="115" x2="137.975" y2="12.5" gradientUnits="userSpaceOnUse">
<stop stop-color="#F6EACA"/>
<stop offset="1" stop-color="#E5BF5E"/>
</linearGradient>
</defs>
</svg>
