<svg width="186" height="161" viewBox="0 0 186 161" fill="none" xmlns="http://www.w3.org/2000/svg">
<g clip-path="url(#clip0_83_437)">
<path d="M172.423 0.658733L118.681 5.92857C114.99 6.29043 110.032 8.93794 107.681 11.8L47.5836 84.9652C47.0205 85.6502 46.5979 86.4396 46.34 87.288C46.0821 88.1365 45.9939 89.0274 46.0804 89.91C46.1669 90.7925 46.4265 91.6494 46.8444 92.4316C47.2622 93.2138 47.83 93.9059 48.5155 94.4686L111.845 146.488C112.53 147.051 113.32 147.473 114.168 147.731C115.017 147.989 115.907 148.077 116.79 147.991C117.673 147.904 118.529 147.645 119.312 147.227C120.094 146.809 120.786 146.241 121.349 145.556L181.446 72.3905C183.805 69.5186 185.431 64.1503 185.069 60.46L179.8 6.71778C179.625 4.93612 178.75 3.29683 177.366 2.16053C175.983 1.02424 174.205 0.484028 172.423 0.658733ZM144.104 57.6946C142.339 57.8671 140.557 57.6902 138.861 57.1742C137.164 56.6581 135.585 55.8128 134.215 54.6867C132.845 53.5606 131.711 52.1757 130.876 50.611C130.041 49.0464 129.523 47.3326 129.35 45.5676C129.178 43.8025 129.354 42.0208 129.871 40.3241C130.387 38.6275 131.232 37.049 132.358 35.679C133.484 34.309 134.869 33.1742 136.434 32.3394C137.998 31.5046 139.712 30.9861 141.477 30.8137C145.042 30.4653 148.599 31.5473 151.366 33.8216C154.133 36.0958 155.883 39.3761 156.231 42.9407C156.579 46.5054 155.497 50.0624 153.223 52.8293C150.949 55.5962 147.669 57.3463 144.104 57.6946Z" fill="url(#paint0_linear_83_437)"/>
<path d="M25.3797 91.9443L94.049 8.34387L82.8527 9.44175C79.1624 9.80361 74.2041 12.4511 71.8532 15.3132L11.7554 88.4784C11.1924 89.1634 10.7698 89.9527 10.5119 90.8012C10.2539 91.6496 10.1657 92.5406 10.2523 93.4232C10.3388 94.3057 10.5984 95.1626 11.0162 95.9447C11.434 96.7269 12.0019 97.4191 12.6873 97.9818L76.0171 150.001C76.7022 150.564 77.4915 150.986 78.34 151.244C79.1884 151.502 80.0794 151.59 80.9619 151.504C81.8445 151.417 82.7013 151.158 83.4835 150.74C84.2657 150.322 84.9579 149.754 85.5205 149.069L89.3176 144.446L25.3797 91.9443Z" fill="url(#paint1_linear_83_437)"/>
</g>
<defs>
<linearGradient id="paint0_linear_83_437" x1="148.301" y1="177.356" x2="75.6346" y2="-117.962" gradientUnits="userSpaceOnUse">
<stop stop-color="#E5BF5E"/>
<stop offset="1" stop-color="#F6EACA"/>
</linearGradient>
<linearGradient id="paint1_linear_83_437" x1="98.5594" y1="172.186" x2="10.0081" y2="-116.048" gradientUnits="userSpaceOnUse">
<stop stop-color="#E5BF5E"/>
<stop offset="1" stop-color="#F6EACA"/>
</linearGradient>
<clipPath id="clip0_83_437">
<rect width="180" height="144" fill="white" transform="translate(0 17.5661) rotate(-5.60038)"/>
</clipPath>
</defs>
</svg>
