<svg width="42" height="42" viewBox="0 0 42 42" fill="none" xmlns="http://www.w3.org/2000/svg">
<path fill-rule="evenodd" clip-rule="evenodd" d="M14 3.5C14.4286 3.50006 14.8423 3.65742 15.1627 3.94225C15.483 4.22708 15.6876 4.61956 15.7378 5.04525L15.75 5.25V8.75C17.0891 8.74993 18.3777 9.26157 19.352 10.1802C20.3263 11.0989 20.9127 12.3552 20.9913 13.692L21 14V24.5C21.0001 25.8391 20.4884 27.1277 19.5698 28.102C18.6511 29.0763 17.3948 29.6627 16.058 29.7413L15.75 29.75V36.75C15.7495 37.196 15.5787 37.6251 15.2725 37.9494C14.9663 38.2737 14.5478 38.4689 14.1026 38.4951C13.6573 38.5212 13.2188 38.3763 12.8768 38.09C12.5348 37.8038 12.3149 37.3977 12.2622 36.9548L12.25 36.75V29.75C10.9109 29.7501 9.62235 29.2384 8.64804 28.3198C7.67374 27.4011 7.08731 26.1448 7.00875 24.808L7 24.5V14C6.99993 12.6609 7.51157 11.3723 8.43025 10.398C9.34892 9.42374 10.6052 8.83731 11.942 8.75875L12.25 8.75V5.25C12.25 4.78587 12.4344 4.34075 12.7626 4.01256C13.0908 3.68437 13.5359 3.5 14 3.5ZM29.75 3.5C30.1786 3.50006 30.5923 3.65742 30.9127 3.94225C31.233 4.22708 31.4376 4.61956 31.4878 5.04525L31.5 5.25V12.25C32.8391 12.2499 34.1276 12.7616 35.102 13.6802C36.0763 14.5989 36.6627 15.8552 36.7413 17.192L36.75 17.5V28C36.7501 29.3391 36.2384 30.6277 35.3198 31.602C34.4011 32.5763 33.1448 33.1627 31.808 33.2413L31.5 33.25V36.75C31.4995 37.196 31.3287 37.6251 31.0225 37.9494C30.7163 38.2737 30.2978 38.4689 29.8526 38.4951C29.4073 38.5212 28.9688 38.3763 28.6268 38.09C28.2847 37.8038 28.0649 37.3977 28.0122 36.9548L28 36.75V33.25C26.6609 33.2501 25.3723 32.7384 24.398 31.8198C23.4237 30.9011 22.8373 29.6448 22.7587 28.308L22.75 28V17.5C22.7499 16.1609 23.2616 14.8723 24.1802 13.898C25.0989 12.9237 26.3552 12.3373 27.692 12.2588L28 12.25V5.25C28 4.78587 28.1844 4.34075 28.5126 4.01256C28.8407 3.68437 29.2859 3.5 29.75 3.5ZM31.5 15.75H28C27.5714 15.7501 27.1577 15.9074 26.8373 16.1923C26.517 16.4771 26.3124 16.8696 26.2622 17.2953L26.25 17.5V28C26.2501 28.4286 26.4074 28.8423 26.6923 29.1627C26.9771 29.483 27.3696 29.6876 27.7952 29.7378L28 29.75H31.5C31.9286 29.7499 32.3423 29.5926 32.6627 29.3077C32.983 29.0229 33.1876 28.6304 33.2378 28.2048L33.25 28V17.5C33.2499 17.0714 33.0926 16.6577 32.8077 16.3373C32.5229 16.017 32.1304 15.8124 31.7048 15.7623L31.5 15.75ZM15.75 12.25H12.25C11.8214 12.2501 11.4077 12.4074 11.0873 12.6923C10.767 12.9771 10.5624 13.3696 10.5122 13.7953L10.5 14V24.5C10.5001 24.9286 10.6574 25.3423 10.9423 25.6627C11.2271 25.983 11.6196 26.1876 12.0452 26.2378L12.25 26.25H15.75C16.1786 26.2499 16.5923 26.0926 16.9127 25.8078C17.233 25.5229 17.4376 25.1304 17.4878 24.7048L17.5 24.5V14C17.4999 13.5714 17.3426 13.1577 17.0577 12.8373C16.7729 12.517 16.3804 12.3124 15.9547 12.2623L15.75 12.25Z" fill="#DDAB2C"/>
</svg>
