<svg width="36" height="36" viewBox="0 0 36 36" fill="none" xmlns="http://www.w3.org/2000/svg">
<path d="M29.85 18.99C29.6095 18.7163 29.4769 18.3644 29.4769 18C29.4769 17.6357 29.6095 17.2838 29.85 17.01L31.77 14.85C31.9816 14.614 32.113 14.3171 32.1453 14.0018C32.1776 13.6865 32.1093 13.3691 31.95 13.095L28.95 7.90503C28.7924 7.63131 28.5523 7.41434 28.2641 7.28506C27.9759 7.15577 27.6543 7.12076 27.345 7.18503L24.525 7.75503C24.1662 7.82917 23.7926 7.76941 23.4748 7.58703C23.157 7.40464 22.917 7.11225 22.8 6.76503L21.885 4.02003C21.7844 3.72209 21.5927 3.46332 21.3369 3.28029C21.0812 3.09725 20.7745 2.99921 20.46 3.00003H14.46C14.1329 2.98295 13.8092 3.07342 13.5383 3.2576C13.2675 3.44178 13.0644 3.70955 12.96 4.02003L12.12 6.76503C12.003 7.11225 11.763 7.40464 11.4452 7.58703C11.1274 7.76941 10.7538 7.82917 10.395 7.75503L7.5 7.18503C7.20683 7.1436 6.90795 7.18986 6.64102 7.31799C6.37409 7.44611 6.15105 7.65037 6 7.90503L3 13.095C2.83674 13.366 2.76333 13.6817 2.79027 13.9969C2.81722 14.3121 2.94312 14.6107 3.15 14.85L5.055 17.01C5.29548 17.2838 5.4281 17.6357 5.4281 18C5.4281 18.3644 5.29548 18.7163 5.055 18.99L3.15 21.15C2.94312 21.3894 2.81722 21.688 2.79027 22.0032C2.76333 22.3184 2.83674 22.6341 3 22.905L6 28.095C6.15765 28.3687 6.39768 28.5857 6.68588 28.715C6.97408 28.8443 7.29574 28.8793 7.605 28.815L10.425 28.245C10.7838 28.1709 11.1574 28.2306 11.4752 28.413C11.793 28.5954 12.033 28.8878 12.15 29.235L13.065 31.98C13.1694 32.2905 13.3725 32.5583 13.6433 32.7425C13.9142 32.9266 14.2379 33.0171 14.565 33H20.565C20.8795 33.0008 21.1862 32.9028 21.4419 32.7198C21.6977 32.5367 21.8894 32.278 21.99 31.98L22.905 29.235C23.022 28.8878 23.262 28.5954 23.5798 28.413C23.8976 28.2306 24.2712 28.1709 24.63 28.245L27.45 28.815C27.7593 28.8793 28.0809 28.8443 28.3691 28.715C28.6573 28.5857 28.8974 28.3687 29.055 28.095L32.055 22.905C32.2143 22.631 32.2826 22.3136 32.2503 21.9983C32.218 21.683 32.0866 21.386 31.875 21.15L29.85 18.99ZM27.615 21L28.815 22.35L26.895 25.68L25.125 25.32C24.0447 25.0992 22.9209 25.2827 21.9669 25.8357C21.0129 26.3888 20.2952 27.2728 19.95 28.32L19.38 30H15.54L15 28.29C14.6548 27.2428 13.9371 26.3588 12.9831 25.8057C12.0291 25.2527 10.9053 25.0692 9.825 25.29L8.055 25.65L6.105 22.335L7.305 20.985C8.04293 20.16 8.4509 19.0919 8.4509 17.985C8.4509 16.8781 8.04293 15.8101 7.305 14.985L6.105 13.635L8.025 10.335L9.795 10.695C10.8753 10.9159 11.9991 10.7323 12.9531 10.1793C13.9071 9.6263 14.6248 8.74226 14.97 7.69503L15.54 6.00003H19.38L19.95 7.71003C20.2952 8.75726 21.0129 9.6413 21.9669 10.1943C22.9209 10.7473 24.0447 10.9309 25.125 10.71L26.895 10.35L28.815 13.68L27.615 15.03C26.8853 15.8532 26.4825 16.915 26.4825 18.015C26.4825 19.115 26.8853 20.1769 27.615 21ZM17.46 12C16.2733 12 15.1133 12.3519 14.1266 13.0112C13.1399 13.6705 12.3708 14.6076 11.9167 15.7039C11.4626 16.8003 11.3438 18.0067 11.5753 19.1706C11.8068 20.3345 12.3782 21.4036 13.2174 22.2427C14.0565 23.0818 15.1256 23.6532 16.2895 23.8847C17.4533 24.1162 18.6597 23.9974 19.7561 23.5433C20.8525 23.0892 21.7895 22.3201 22.4488 21.3334C23.1081 20.3468 23.46 19.1867 23.46 18C23.46 16.4087 22.8279 14.8826 21.7026 13.7574C20.5774 12.6322 19.0513 12 17.46 12ZM17.46 21C16.8667 21 16.2866 20.8241 15.7933 20.4944C15.2999 20.1648 14.9154 19.6963 14.6884 19.1481C14.4613 18.5999 14.4019 17.9967 14.5176 17.4148C14.6334 16.8328 14.9191 16.2983 15.3387 15.8787C15.7582 15.4591 16.2928 15.1734 16.8747 15.0577C17.4567 14.9419 18.0599 15.0013 18.6081 15.2284C19.1562 15.4555 19.6248 15.84 19.9544 16.3333C20.2841 16.8267 20.46 17.4067 20.46 18C20.46 18.7957 20.1439 19.5587 19.5813 20.1213C19.0187 20.684 18.2557 21 17.46 21Z" fill="#DDAB2C"/>
</svg>
