<svg width="130" height="160" viewBox="0 0 130 160" fill="none" xmlns="http://www.w3.org/2000/svg">
<path d="M73.5 35.5556C76.009 35.5556 78.1137 34.7022 79.8139 32.9956C81.5142 31.2889 82.3613 29.1793 82.3554 26.6667C82.3495 24.1541 81.4994 22.0444 79.8051 20.3378C78.1107 18.6311 76.009 17.7778 73.5 17.7778C70.991 17.7778 68.8893 18.6311 67.1949 20.3378C65.5006 22.0444 64.6505 24.1541 64.6446 26.6667C64.6387 29.1793 65.4888 31.2919 67.1949 33.0044C68.9011 34.717 71.0028 35.5674 73.5 35.5556ZM0 160L17.7108 35.5556H48.4834C48.0407 34.0741 47.6717 32.6282 47.3765 31.2178C47.0813 29.8074 46.9337 28.2904 46.9337 26.6667C46.9337 19.2593 49.5166 12.963 54.6822 7.77778C59.8479 2.59259 66.1205 0 73.5 0C80.8795 0 87.1521 2.59259 92.3178 7.77778C97.4834 12.963 100.066 19.2593 100.066 26.6667C100.066 28.2963 99.9187 29.8163 99.6235 31.2267C99.3283 32.637 98.9593 34.08 98.5166 35.5556H129.289L147 160H0Z" fill="url(#paint0_linear_83_427)"/>
<defs>
<linearGradient id="paint0_linear_83_427" x1="-28.5" y1="-113" x2="74" y2="189" gradientUnits="userSpaceOnUse">
<stop stop-color="#F6EACA"/>
<stop offset="1" stop-color="#E5BF5E"/>
</linearGradient>
</defs>
</svg>
